<?xml version="1.0" ?><!DOCTYPE svg  PUBLIC '-//W3C//DTD SVG 1.1//EN'  'http://www.w3.org/Graphics/SVG/1.1/DTD/svg11.dtd'><svg enable-background="new 0 0 512 512" height="512px" id="Layer_1" version="1.1" viewBox="0 0 512 512" width="512px" xml:space="preserve" xmlns="http://www.w3.org/2000/svg" xmlns:xlink="http://www.w3.org/1999/xlink"><g id="spa-space-walk"><line fill="none" stroke="#000000" stroke-linejoin="round" stroke-miterlimit="10" stroke-width="18.1479" x1="211.407" x2="160.074" y1="465.031" y2="413.706"/><line fill="none" stroke="#000000" stroke-linejoin="round" stroke-miterlimit="10" stroke-width="18.1479" x1="83.078" x2="134.411" y1="336.711" y2="388.044"/><rect fill="none" height="76.995" stroke="#000000" stroke-linecap="round" stroke-linejoin="round" stroke-miterlimit="10" stroke-width="18.1479" transform="matrix(0.7071 0.7071 -0.7071 0.7071 262.9691 -140.2797)" width="76.995" x="262.32" y="208.794"/><path d="   M479.425,176.898c-28.87,28.87-87.584,51.625-123.712,15.507c-36.136-36.119-13.371-94.834,15.498-123.721   c28.746-28.746,76.314-27.931,106.238,1.985C507.374,100.584,508.171,148.152,479.425,176.898z" fill="none" stroke="#000000" stroke-linecap="round" stroke-linejoin="round" stroke-miterlimit="10" stroke-width="18.1479"/><path d="   M371.211,68.684c0,0,26.292-3.083,66.167,36.792s42.047,71.422,42.047,71.422" fill="none" stroke="#000000" stroke-linecap="round" stroke-linejoin="round" stroke-miterlimit="10" stroke-width="18.1479"/><line fill="none" stroke="#000000" stroke-linecap="round" stroke-linejoin="round" stroke-miterlimit="10" stroke-width="18.1479" x1="191.93" x2="191.93" y1="102.109" y2="174.7"/><path d="   M337.308,142.614c0,0-39.875-40.496-90.934-40.505c-51.067-0.009-90.739,0-90.739,0c-16.553,0.009-36.296,12.938-36.296,36.296   c0,23.367,19.743,36.296,36.296,36.296h90.739L57.416,362.373c-6.221,6.221-10.492,15.658-10.66,25.618   c-0.142,8.781,2.915,17.97,10.66,25.715c16.517,16.518,39.619,11.697,51.324,0c0,0,76.996-76.986,76.996-76.995   c7.089-7.089,18.582-7.089,25.671,0c7.08,7.08,7.08,18.582,0,25.662l-76.996,76.996c-11.705,11.705-16.526,34.825-0.008,51.342   c7.726,7.726,16.898,10.783,25.662,10.651c9.978-0.151,19.442-4.431,25.671-10.669l187.673-188.958" fill="none" stroke="#000000" stroke-linecap="round" stroke-linejoin="round" stroke-miterlimit="10" stroke-width="18.1479"/><line fill="none" stroke="#000000" stroke-linecap="round" stroke-linejoin="round" stroke-miterlimit="10" stroke-width="18.1479" x1="446" x2="373.409" y1="356.179" y2="356.179"/><path d="   M405.593,210.907c0,0,40.398,39.769,40.407,90.828c0.009,51.059,0,90.739,0,90.739c-0.009,16.562-12.938,36.296-36.296,36.296   c-23.358,0-36.296-19.743-36.296-36.296v-90.739" fill="none" stroke="#000000" stroke-linecap="round" stroke-linejoin="round" stroke-miterlimit="10" stroke-width="18.1479"/><path d="   M284.46,109.676l29.189-29.207c10.633-10.625,27.869-10.633,38.502,0l5.193,5.193" fill="none" stroke="#000000" stroke-linecap="round" stroke-linejoin="round" stroke-miterlimit="10" stroke-width="18.1479"/><path d="   M438.442,263.677l29.198-29.216c10.633-10.633,10.633-27.86,0-38.493l-5.184-5.193" fill="none" stroke="#000000" stroke-linecap="round" stroke-linejoin="round" stroke-miterlimit="10" stroke-width="18.1479"/><path d="   M10.451,11.369c0,0,25.485,54.444,81.666,54.444c64.581,0,72.592-36.296,127.035-36.296c45.37,0,81.666,63.527,81.666,63.527" fill="none" stroke="#000000" stroke-linecap="round" stroke-linejoin="round" stroke-miterlimit="10" stroke-width="18.1479"/></g></svg>